<svg width="121" height="125" fill="none" xmlns="http://www.w3.org/2000/svg"><path d="M.2 62.5C.2 29.163 27.19 2.153 60.5 2.153s60.3 27.01 60.3 60.347-26.99 60.347-60.3 60.347S.2 95.837.2 62.5zm11.31 0c0 27.039 21.971 49.028 48.99 49.028 27.019 0 48.99-21.989 48.99-49.028 0-27.039-21.971-49.028-48.99-49.028-27.019 0-48.99 21.989-48.99 49.028zm37.08-11.719a7.601 7.601 0 01-7.606 7.613 7.601 7.601 0 01-7.607-7.613c0-4.21 3.4-7.612 7.607-7.612a7.601 7.601 0 017.606 7.612zm39.033 0c0 4.211-3.4 7.613-7.607 7.613a7.601 7.601 0 01-7.606-7.613 7.601 7.601 0 017.606-7.612 7.601 7.601 0 017.607 7.612z" fill="#989898" stroke="#fff" stroke-width=".4"/><path d="M60.51 83.708a26.815 26.815 0 00-20.645 9.69c-2.003 2.406-5.584 2.712-7.964.732a5.656 5.656 0 01-.73-7.97 38.082 38.082 0 0129.34-13.747A38.082 38.082 0 0189.85 86.16c1.98 2.407 1.672 5.967-.73 7.97-2.38 1.981-5.962 1.675-7.965-.73-5.112-6.174-12.658-9.691-20.645-9.691z" fill="#989898" stroke="#fff" stroke-width=".4"/></svg>