<svg width="121" height="123" fill="none" xmlns="http://www.w3.org/2000/svg"><path d="M.2 61.5C.2 28.163 27.19 1.153 60.5 1.153s60.3 27.01 60.3 60.347-26.99 60.347-60.3 60.347S.2 94.837.2 61.5zm11.31 0c0 27.039 21.971 49.028 48.99 49.028 27.019 0 48.99-21.989 48.99-49.028 0-27.039-21.971-49.028-48.99-49.028-27.019 0-48.99 21.989-48.99 49.028zm37.08-11.719a7.601 7.601 0 01-7.606 7.613 7.601 7.601 0 01-7.607-7.613c0-4.21 3.4-7.612 7.607-7.612a7.601 7.601 0 017.606 7.612zm39.033 0c0 4.211-3.4 7.613-7.607 7.613a7.601 7.601 0 01-7.606-7.613 7.601 7.601 0 017.606-7.612 7.601 7.601 0 017.607 7.612zM60.5 85.138a26.815 26.815 0 0020.646-9.692c2.002-2.404 5.584-2.711 7.963-.73a5.656 5.656 0 01.731 7.97A38.082 38.082 0 0160.5 96.431a38.082 38.082 0 01-29.34-13.746c-1.98-2.406-1.672-5.967.73-7.97 2.38-1.981 5.961-1.675 7.964.73 5.113 6.174 12.658 9.692 20.646 9.692z" fill="#989898" stroke="#fff" stroke-width=".4"/></svg>